<?xml version="1.0" encoding="utf-8"?>
<!-- Generator: Adobe Illustrator 16.0.0, SVG Export Plug-In . SVG Version: 6.00 Build 0)  -->
<!DOCTYPE svg PUBLIC "-//W3C//DTD SVG 1.1//EN" "http://www.w3.org/Graphics/SVG/1.1/DTD/svg11.dtd">
<svg version="1.1" id="Layer_1" xmlns="http://www.w3.org/2000/svg" xmlns:xlink="http://www.w3.org/1999/xlink" x="0px" y="0px"
	 width="90.4px" height="90.4px" viewBox="232.399 7.4 90.4 90.4" enable-background="new 232.399 7.4 90.4 90.4"
	 xml:space="preserve">
<g>
	<g>
		<path fill="#FF0000" d="M304.4,35v22.47c0,2.59-0.57,4.78-1.62,6.73c-1.14,1.94-2.68,3.4-4.79,4.46
			c-2.11,1.05-4.54,1.54-7.46,1.54c-4.3,0-7.62-1.14-10.05-3.41c-2.351-2.27-3.57-5.43-3.57-9.399V39.87h-10.22v29.839h-5.67V39.87
			H250.8V35h31.79v21.98c0,2.84,0.641,4.95,2.021,6.32c1.38,1.38,3.41,2.029,6.17,2.029c5.35,0,8.02-2.84,8.02-8.43V35H304.4z"/>
	</g>
	<rect x="236.399" y="11.4" fill="none" stroke="#FF0000" stroke-width="5" stroke-miterlimit="10" width="82.4" height="82.4"/>
</g>
</svg>
