<?xml version="1.0" encoding="utf-8"?>
<?xml-stylesheet href="css/main.css" type="text/css"?>
<!-- Generator: Adobe Illustrator 16.0.0, SVG Export Plug-In . SVG Version: 6.00 Build 0)  -->
<!DOCTYPE svg PUBLIC "-//W3C//DTD SVG 1.1//EN" "http://www.w3.org/Graphics/SVG/1.1/DTD/svg11.dtd">
<svg version="1.1" id="Layer_1" xmlns="http://www.w3.org/2000/svg" xmlns:xlink="http://www.w3.org/1999/xlink" x="0px" y="0px"
	 width="494.9px" height="119.8px" viewBox="0 0 494.9 119.8" enable-background="new 0 0 494.9 119.8" xml:space="preserve">
<g id="svg">
	<path class="svg__content" fill="#FFFFFF" d="M88.494,77.01h-5.675V47.169H72.601v-4.865h26.11v4.865H88.494V77.01z"/>
	<path class="svg__conten" fill="#FFFFFF" d="M131.47,77.01h-5.676V61.36H109.74v15.65h-5.676V42.305h5.676v14.19h15.974v-14.19h5.676V77.01H131.47z"/>
	<path class="svg__content" fill="#FFFFFF" d="M160.257,77.01h-19.623V42.305h19.623v4.784h-13.947v9.487h13.055v4.785h-13.055v10.866h13.947V77.01
		L160.257,77.01z"/>
	<path class="svg__content" fill="#FF0000" d="M207.611,42.305v22.46c0,2.595-0.567,4.785-1.622,6.73c-1.134,1.947-2.675,3.405-4.784,4.461
		c-2.108,1.054-4.542,1.539-7.46,1.539c-4.297,0-7.623-1.134-10.055-3.406c-2.351-2.27-3.567-5.431-3.567-9.404v-22.38h5.676V64.28
		c0,2.837,0.649,4.945,2.027,6.324c1.379,1.378,3.406,2.026,6.163,2.026c5.352,0,8.027-2.837,8.027-8.433V42.305H207.611z"/>
	<path class="svg__content" fill="#FF0000" d="M245.398,77.01h-6.974l-17.108-27.651h-0.163l0.082,1.54c0.244,2.919,0.323,5.676,0.323,8.109V77.01h-5.188
		V42.305h6.893l17.028,27.571h0.161c0-0.325-0.081-1.704-0.161-3.974c-0.083-2.271-0.163-4.056-0.163-5.352V42.305h5.188V77.01
		H245.398z"/>
	<path class="svg__content" fill="#FF0000" d="M282.861,59.333c0,5.758-1.622,10.137-4.786,13.137c-3.162,2.999-7.782,4.541-13.784,4.541h-9.729V42.305
		h10.702c5.515,0,9.812,1.459,12.894,4.46C281.319,49.764,282.861,53.9,282.861,59.333z M276.859,59.495
		c0-8.352-3.892-12.487-11.678-12.487h-4.944v25.219h4.054C272.643,72.226,276.859,68.008,276.859,59.495z"/>
	<path class="svg__content" fill="#FF0000" d="M309.943,77.01H290.32V42.305h19.623v4.784h-13.947v9.487h13.056v4.785h-13.056v10.866h13.947V77.01z"/>
	<path class="svg__content" fill="#FF0000" d="M323.161,63.144V77.01h-5.677V42.305h9.812c4.46,0,7.785,0.811,9.975,2.513
		c2.188,1.703,3.243,4.217,3.243,7.623c0,4.297-2.271,7.379-6.73,9.245l9.812,15.405h-6.487l-8.353-13.866h-5.594V63.144z
		 M323.161,58.44h3.973c2.676,0,4.541-0.486,5.757-1.459c1.218-0.974,1.784-2.433,1.784-4.379c0-1.947-0.648-3.406-1.946-4.216
		c-1.296-0.812-3.242-1.298-5.757-1.298h-3.73V58.44H323.161z"/>
	<path class="svg__content" fill="#FF0000" d="M371.571,52.765c0,3.648-1.218,6.406-3.568,8.352c-2.353,1.946-5.757,2.918-10.137,2.918h-3.648V77.01
		h-5.677V42.305h9.974c4.379,0,7.621,0.892,9.73,2.676C370.353,46.765,371.571,49.359,371.571,52.765z M354.218,59.252h2.999
		c2.92,0,5.029-0.487,6.406-1.541c1.378-0.974,2.027-2.595,2.027-4.785c0-2.027-0.649-3.486-1.865-4.46
		c-1.217-0.973-3.082-1.459-5.677-1.459h-3.972v12.245H354.218z"/>
	<path class="svg__content" fill="#FF0000" d="M378.463,77.01V42.305h5.677V77.01H378.463z"/>
	<path class="svg__content" fill="#FF0000" d="M422.249,77.01h-6.975l-17.108-27.651h-0.161l0.08,1.54c0.244,2.919,0.324,5.676,0.324,8.109V77.01h-5.188
		V42.305h6.891l17.029,27.571h0.161c0-0.325-0.081-1.704-0.161-3.974c-0.083-2.271-0.163-4.056-0.163-5.352V42.305h5.188V77.01
		H422.249z"/>
</g>
<g>
	<path class="svg__content" fill="#FF0000" d="M433.975,117.3H60.875c-32.2,0-58.4-25.801-58.4-57.4c0-31.6,26.2-57.4,58.4-57.4h373.101
		c32.199,0,58.4,25.8,58.4,57.4C492.376,91.5,466.175,117.3,433.975,117.3z M60.875,9.5c-28.3,0-51.4,22.6-51.4,50.4
		c0,27.801,23,50.4,51.3,50.4h373.201c28.301,0,51.301-22.6,51.301-50.4c0-27.8-23-50.4-51.301-50.4H60.875z"/>
</g>
</svg>
